<svg width="32" height="32" viewBox="0 0 32 32" fill="none" xmlns="http://www.w3.org/2000/svg">
<path fill-rule="evenodd" clip-rule="evenodd" d="M15.4306 10.0186C15.4306 6.33432 18.4173 3.34766 22.1016 3.34766C24.2648 3.34766 25.9906 4.36952 27.1469 5.85432C28.3699 5.60364 29.5424 5.15009 30.6157 4.51246C30.2001 5.80569 29.33 6.90459 28.1666 7.60579L28.1709 7.61219C29.2753 7.47875 30.3538 7.18181 31.3709 6.73112L31.3688 6.73539C30.6498 7.81272 29.7474 8.76206 28.7064 9.53646C28.7618 9.91406 28.7917 10.2917 28.7917 10.6671C28.7917 18.5327 22.7992 27.6805 11.7784 27.6805C8.52868 27.6833 5.34693 26.7501 2.61357 24.9925C2.48489 24.9099 2.37547 24.8006 2.29272 24.672C2.20998 24.5434 2.15585 24.3985 2.13399 24.2472C2.11214 24.0959 2.12309 23.9416 2.16608 23.7949C2.20907 23.6481 2.28311 23.5123 2.38317 23.3967C2.47833 23.2385 2.61709 23.1111 2.78281 23.0298C2.94854 22.9484 3.13421 22.9166 3.31757 22.9381C5.27171 23.1685 7.22157 22.9295 8.94317 22.1786C8.09402 21.8034 7.33381 21.2529 6.71246 20.5631C6.0911 19.8734 5.62265 19.06 5.33784 18.1765C5.28518 18.0121 5.27779 17.8366 5.31646 17.6684C5.35513 17.5002 5.43842 17.3456 5.55757 17.2207C4.85647 16.6054 4.29489 15.8475 3.91042 14.9976C3.52595 14.1477 3.32746 13.2255 3.32824 12.2927V12.2202C3.32819 11.997 3.4059 11.7808 3.54801 11.6087C3.69012 11.4366 3.88774 11.3194 4.10691 11.2773C3.62324 10.3439 3.37151 9.30771 3.37304 8.25646C3.37304 7.25806 3.37944 5.99939 4.08131 4.86446C4.15629 4.74422 4.25697 4.64208 4.37611 4.56536C4.49524 4.48864 4.62989 4.43925 4.77037 4.42072C4.97408 4.35648 5.19238 4.35487 5.39701 4.41611C5.60164 4.47734 5.78318 4.5986 5.91811 4.76419C8.29618 7.68961 11.6975 9.60152 15.4328 10.1125V10.0186H15.4306ZM11.7784 25.5471C10.1461 25.5483 8.52496 25.2794 6.98051 24.7514C8.83819 24.445 10.5904 23.681 12.0792 22.5285C12.2352 22.4061 12.3495 22.2384 12.4064 22.0484C12.4632 21.8584 12.4599 21.6555 12.3967 21.4675C12.3336 21.2795 12.2138 21.1157 12.0538 20.9985C11.8938 20.8814 11.7014 20.8167 11.5032 20.8133C10.789 20.8004 10.0874 20.6228 9.45311 20.2942C8.81886 19.9656 8.26907 19.4949 7.84664 18.9189C8.25197 18.8869 8.64877 18.8165 9.03277 18.7141C9.2421 18.6581 9.42634 18.533 9.55553 18.359C9.68472 18.1851 9.75126 17.9725 9.74434 17.756C9.73742 17.5394 9.65744 17.3315 9.5174 17.1662C9.37737 17.0008 9.18551 16.8877 8.97304 16.8453C8.16143 16.6808 7.40844 16.3027 6.79188 15.7499C6.17531 15.1971 5.71753 14.4896 5.46584 13.7007C5.89251 13.8031 6.33837 13.865 6.79491 13.8799C7.00353 13.8869 7.20876 13.8258 7.3795 13.7057C7.55024 13.5856 7.67718 13.4131 7.74109 13.2144C7.805 13.0157 7.80239 12.8015 7.73367 12.6044C7.66495 12.4073 7.53385 12.238 7.36024 12.1221C6.72366 11.698 6.20168 11.1232 5.84067 10.4488C5.47967 9.77446 5.29082 9.02137 5.29091 8.25646C5.29091 7.89806 5.29731 7.58019 5.31864 7.29006C8.30375 10.3364 12.3271 12.1462 16.5869 12.3589C16.7514 12.3672 16.9156 12.3374 17.0666 12.2717C17.2177 12.206 17.3514 12.1062 17.4574 11.9801C17.5635 11.8541 17.6388 11.7052 17.6777 11.5451C17.7165 11.385 17.7178 11.2181 17.6813 11.0575C17.5246 10.3914 17.5206 9.69845 17.6696 9.03056C17.8186 8.36267 18.1168 7.73713 18.5417 7.20076C18.9667 6.66439 19.5074 6.23108 20.1235 5.93326C20.7396 5.63544 21.4151 5.48083 22.0994 5.48099C24.732 5.48099 26.6562 7.91939 26.6562 10.6693C26.6562 17.6154 21.3741 25.5471 11.7762 25.5471H11.7784Z" fill="white"/>
</svg>
