<svg width="32" height="32" viewBox="0 0 32 32" fill="none" xmlns="http://www.w3.org/2000/svg">
<path d="M29 16C29 13.4288 28.2376 10.9154 26.8091 8.77759C25.3807 6.63975 23.3503 4.97351 20.9749 3.98957C18.5995 3.00563 15.9856 2.74819 13.4638 3.2498C10.9421 3.75141 8.6257 4.98953 6.80762 6.80762C4.98953 8.6257 3.75141 10.9421 3.2498 13.4638C2.74819 15.9856 3.00563 18.5995 3.98957 20.9749C4.97351 23.3503 6.63975 25.3807 8.77759 26.8091C10.9154 28.2376 13.4288 29 16 29C19.4468 28.9967 22.7515 27.626 25.1887 25.1887C27.626 22.7515 28.9967 19.4468 29 16ZM17 26.95V19H20C20.2652 19 20.5196 18.8946 20.7071 18.7071C20.8946 18.5196 21 18.2652 21 18C21 17.7348 20.8946 17.4804 20.7071 17.2929C20.5196 17.1054 20.2652 17 20 17H17V14C17 13.4696 17.2107 12.9609 17.5858 12.5858C17.9609 12.2107 18.4696 12 19 12H21C21.2652 12 21.5196 11.8946 21.7071 11.7071C21.8946 11.5196 22 11.2652 22 11C22 10.7348 21.8946 10.4804 21.7071 10.2929C21.5196 10.1054 21.2652 10 21 10H19C17.9402 10.0033 16.9247 10.4258 16.1752 11.1752C15.4258 11.9247 15.0033 12.9402 15 14V17H12C11.7348 17 11.4804 17.1054 11.2929 17.2929C11.1054 17.4804 11 17.7348 11 18C11 18.2652 11.1054 18.5196 11.2929 18.7071C11.4804 18.8946 11.7348 19 12 19H15V26.95C12.181 26.6927 9.56971 25.3585 7.7093 23.225C5.8489 21.0914 4.8826 18.3228 5.0114 15.495C5.1402 12.6672 6.35419 9.99795 8.40085 8.04239C10.4475 6.08683 13.1693 4.99555 16 4.99555C18.8307 4.99555 21.5525 6.08683 23.5992 8.04239C25.6458 9.99795 26.8598 12.6672 26.9886 15.495C27.1174 18.3228 26.1511 21.0914 24.2907 23.225C22.4303 25.3585 19.819 26.6927 17 26.95Z" fill="white"/>
</svg>
